<svg id="Layer_1" data-name="Layer 1" xmlns="http://www.w3.org/2000/svg" viewBox="0 0 316.89 354.03"><defs><style>.cls-1,.cls-3{fill:#231f20;stroke-linecap:round;stroke-linejoin:round;}.cls-1,.cls-2,.cls-3,.cls-4{stroke:#231f20;}.cls-1{stroke-width:4px;}.cls-2{fill:none;}.cls-2,.cls-4{stroke-miterlimit:10;}.cls-2,.cls-3,.cls-4{stroke-width:5px;}.cls-4{fill:#fff;}</style></defs><title>logo1</title><path class="cls-1" d="M200.91,244.76c0-11.05,4.47-20,10-20h-95c2.76,0,5,8.95,5,20v150a30,30,0,0,0,30,30h60c-5.53,0-10-8.95-10-20Z" transform="translate(-91.55 -72.74)"/><circle class="cls-2" cx="71.36" cy="81.03" r="50"/><polygon class="cls-3" points="19.64 73.34 11.53 26.77 11.48 26.8 53.05 2.8 53.57 2.5 89.84 32.81 106.42 23.25 2.5 83.25 19.64 73.34"/><path class="cls-1" d="M289.91,244.76c0-11.05-4.47-20-10-20h95c-2.76,0-5,8.95-5,20v150a30,30,0,0,1-30,30h-60c5.53,0,10-8.95,10-20Z" transform="translate(-91.55 -72.74)"/><path class="cls-3" d="M301.56,104c14.23-24.65,52.86-28.95,86.37-9.6,17.47,10.09,23.22,32.78,12.86,50.73l-.25.43c-3.73,6.46-12.75,8.23-20.17,3.94Z" transform="translate(-91.55 -72.74)"/><rect class="cls-2" x="288.06" y="127.8" width="104.5" height="12.1" rx="5.5" ry="5.5" transform="translate(476.56 347.18) rotate(-150)"/><line class="cls-4" x1="225.96" y1="41.6" x2="220.46" y2="51.12"/><line class="cls-4" x1="243.28" y1="51.6" x2="237.78" y2="61.12"/><line class="cls-4" x1="260.6" y1="61.6" x2="255.1" y2="71.12"/><line class="cls-4" x1="277.92" y1="71.6" x2="272.42" y2="81.12"/><path class="cls-2" d="M296.8,115.71a5.41,5.41,0,0,1-.71-.51,50,50,0,1,0,81.11,46.93Z" transform="translate(-91.55 -72.74)"/><path class="cls-2" d="M377.62,148.4A50,50,0,0,0,307.7,108Z" transform="translate(-91.55 -72.74)"/></svg>