<?xml version="1.0" encoding="utf-8"?>
<!-- Generator: Adobe Illustrator 21.0.0, SVG Export Plug-In . SVG Version: 6.00 Build 0)  -->
<svg version="1.1" id="Layer_1" xmlns="http://www.w3.org/2000/svg" xmlns:xlink="http://www.w3.org/1999/xlink" x="0px" y="0px"
	 viewBox="0 0 321.4 357.2" style="enable-background:new 0 0 321.4 357.2;" xml:space="preserve">
<style type="text/css">
	.st0{fill:none;stroke:#231F20;stroke-width:10;stroke-miterlimit:10;}
	.st1{fill:#231F20;}
	.st2{fill:none;stroke:#231F20;stroke-width:5;stroke-linecap:round;stroke-linejoin:round;}
	.st3{fill:#231F20;stroke:#231F20;stroke-width:10;stroke-linecap:round;stroke-linejoin:round;}
</style>
<title>logo2</title>
<g>
	<circle class="st0" cx="73.9" cy="84.2" r="50"/>
	<path class="st1" d="M121.3,161.7c3.9-3.9,2.6-7.1-2.9-7.1h-90c-5.5,0-8,4-5.5,8.9l1.1,2.1c2.7,6,4.2,12.4,4.5,18.9v130
		c0.3,6.5,2.2,12.7,5.6,18.3l3.7,5.5c3.9,5.1,9.2,9,15.2,11.2l6.9,2.1c6.4,1.8,12.9,2.8,19.6,2.9h39c5.5,0,6.8-3.2,2.9-7.1l-5.9-5.9
		c-3.9-3.9-7.1-11.6-7.1-17.1v-140c0-5.5,3.2-13.2,7.1-17.1L121.3,161.7z"/>
	<path class="st2" d="M121.3,161.7c3.9-3.9,2.6-7.1-2.9-7.1h-90c-5.5,0-8,4-5.5,8.9l1.1,2.1c2.7,6,4.2,12.4,4.5,18.9v130
		c0.3,6.5,2.2,12.7,5.6,18.3l3.7,5.5c3.9,5.1,9.2,9,15.2,11.2l6.9,2.1c6.4,1.8,12.9,2.8,19.6,2.9h39c5.5,0,6.8-3.2,2.9-7.1l-5.9-5.9
		c-3.9-3.9-7.1-11.6-7.1-17.1v-140c0-5.5,3.2-13.2,7.1-17.1L121.3,161.7z"/>
	<path class="st1" d="M187.4,161.7c-3.9-3.9-2.6-7.1,2.9-7.1h90c5.5,0,8,4,5.5,8.9l-1,2.1c-2.7,6-4.2,12.4-4.5,18.9v130
		c-0.3,6.5-2.2,12.7-5.6,18.3l-3.7,5.5c-3.9,5.1-9.2,9-15.2,11.2l-6.9,2.1c-6.4,1.8-12.9,2.8-19.6,2.9h-39c-5.5,0-6.8-3.2-2.9-7.1
		l5.9-5.9c3.9-3.9,7.1-11.6,7.1-17.1v-140c0-5.5-3.2-13.2-7.1-17.1L187.4,161.7z"/>
	<path class="st2" d="M187.4,161.7c-3.9-3.9-2.6-7.1,2.9-7.1h90c5.5,0,8,4,5.5,8.9l-1,2.1c-2.7,6-4.2,12.4-4.5,18.9v130
		c-0.3,6.5-2.2,12.7-5.6,18.3l-3.7,5.5c-3.9,5.1-9.2,9-15.2,11.2l-6.9,2.1c-6.4,1.8-12.9,2.8-19.6,2.9h-39c-5.5,0-6.8-3.2-2.9-7.1
		l5.9-5.9c3.9-3.9,7.1-11.6,7.1-17.1v-140c0-5.5-3.2-13.2-7.1-17.1L187.4,161.7z"/>
	<polygon class="st3" points="22.1,76.5 14,29.9 14,30 55.5,5.9 56.1,5.7 92.3,36 108.9,26.4 5,86.4 	"/>
	<path class="st0" d="M285.7,89.5l-81-46.7c-2.6-1.5-3.5-4.9-2-7.5l2.5-4.3c1.5-2.6,4.9-3.5,7.5-2l81,46.8c2.6,1.5,3.5,4.9,2,7.5
		l-2.5,4.3C291.7,90.1,288.4,91,285.7,89.5z"/>
	<line class="st0" x1="226.4" y1="39.7" x2="220.9" y2="49.2"/>
	<line class="st0" x1="243.8" y1="49.7" x2="238.3" y2="59.2"/>
	<line class="st0" x1="261.1" y1="59.7" x2="255.6" y2="69.2"/>
	<line class="st0" x1="278.4" y1="69.7" x2="272.9" y2="79.2"/>
	<path class="st3" d="M212,26.7c14.2-24.7,52.9-28.9,86.4-9.6c17.5,10.1,23.2,32.8,12.9,50.7l-0.3,0.4c-3.7,6.5-12.8,8.2-20.2,3.9
		L212,26.7z"/>
	<path class="st0" d="M282.6,69.2c-7.8-24.8-33.2-39.5-58.6-33.8L282.6,69.2z"/>
	<path class="st0" d="M205.9,43.4c-22.5,16-27.8,47.2-11.9,69.7c16,22.5,47.2,27.8,69.7,11.9c11.9-8.4,19.5-21.6,20.9-36.1
		L205.9,43.4z"/>
</g>
</svg>
